<svg xmlns="http://www.w3.org/2000/svg" width="21" height="21" fill="none"><path fill="#55ACEE" d="M10.5 21C16.3 21 21 16.299 21 10.5S16.3 0 10.5 0C4.703 0 .002 4.701.002 10.5S4.702 21 10.501 21Z"/><path fill="#F1F2F2" d="M16.932 7.546c-.45.2-.934.335-1.442.395.518-.31.916-.802 1.104-1.388A5.023 5.023 0 0 1 15 7.16a2.51 2.51 0 0 0-4.277 2.29A7.124 7.124 0 0 1 5.55 6.828a2.51 2.51 0 0 0 .777 3.35 2.492 2.492 0 0 1-1.137-.313v.032c0 1.216.865 2.23 2.013 2.46a2.503 2.503 0 0 1-1.133.044 2.512 2.512 0 0 0 2.344 1.743A5.035 5.035 0 0 1 4.7 15.183a7.099 7.099 0 0 0 3.846 1.128c4.617 0 7.141-3.825 7.141-7.141 0-.11-.002-.218-.007-.325a5.09 5.09 0 0 0 1.253-1.299Z"/></svg>