<svg xmlns="http://www.w3.org/2000/svg" width="21" height="21" fill="none"><path fill="#6C27B3" d="M10.5 21C16.299 21 21 16.299 21 10.5S16.299 0 10.5 0 0 4.701 0 10.5 4.701 21 10.5 21Z"/><path fill="#501A96" d="M15.369 5.452c-1.255.159-2.563.153-3.88.028-1.837-.141-4.524-.99-5.514.707-1.59 2.717-.806 6.195-.436 9.273l5.527 5.525a10.5 10.5 0 0 0 9.919-9.917l-5.616-5.616Z"/><path fill="#fff" d="M12.93 4.49H8.07a3.585 3.585 0 0 0-3.58 3.58v4.86a3.585 3.585 0 0 0 3.58 3.58h4.86a3.585 3.585 0 0 0 3.58-3.58V8.07a3.585 3.585 0 0 0-3.58-3.58Zm2.37 8.44a2.372 2.372 0 0 1-2.37 2.371H8.07a2.372 2.372 0 0 1-2.37-2.372V8.071a2.372 2.372 0 0 1 2.37-2.372h4.86a2.372 2.372 0 0 1 2.37 2.372v4.858Z"/><path fill="#fff" d="M10.5 7.391a3.112 3.112 0 0 0-3.109 3.11 3.112 3.112 0 0 0 3.109 3.108 3.112 3.112 0 0 0 3.109-3.109A3.112 3.112 0 0 0 10.5 7.391Zm0 5.009a1.9 1.9 0 1 1 0-3.8 1.9 1.9 0 0 1 0 3.8Z"/><path fill="#D1D1D1" d="M14.36 7.415a.745.745 0 1 1-1.49 0 .745.745 0 0 1 1.49 0Z"/><path fill="#D1D1D1" d="M12.93 4.49h-2.454V5.7h2.453a2.372 2.372 0 0 1 2.372 2.37v4.86a2.372 2.372 0 0 1-2.372 2.371h-2.453v1.21h2.453a3.585 3.585 0 0 0 3.581-3.582V8.071a3.585 3.585 0 0 0-3.58-3.581Z"/><path fill="#D1D1D1" d="M10.5 7.391h-.024v1.21h.024a1.9 1.9 0 0 1 0 3.799h-.024v1.208l.024.001a3.112 3.112 0 0 0 3.109-3.109A3.112 3.112 0 0 0 10.5 7.391Z"/></svg>